<svg id="eFcD5mOZSWR1" xmlns="http://www.w3.org/2000/svg" xmlns:xlink="http://www.w3.org/1999/xlink" viewBox="0 0 1080 1080" shape-rendering="geometricPrecision" text-rendering="geometricPrecision">
<style><![CDATA[
#eFcD5mOZSWR3_ts {animation: eFcD5mOZSWR3_ts__ts 2000ms linear infinite normal forwards}@keyframes eFcD5mOZSWR3_ts__ts { 0% {transform: translate(486.089593px,525.555688px) scale(0.943895,0.943895)} 15% {transform: translate(486.089593px,525.555688px) scale(0.943895,0.943895);animation-timing-function: cubic-bezier(0.47,0,0.745,0.715)} 30% {transform: translate(486.089593px,525.555688px) scale(1.193723,1.193723)} 40% {transform: translate(486.089593px,525.555688px) scale(0.943895,0.943895)} 100% {transform: translate(486.089593px,525.555688px) scale(0.943895,0.943895)}} #eFcD5mOZSWR4_to {animation: eFcD5mOZSWR4_to__to 2000ms linear infinite normal forwards}@keyframes eFcD5mOZSWR4_to__to { 0% {transform: translate(504.948242px,607.688696px)} 30% {transform: translate(504.948242px,607.688696px);animation-timing-function: cubic-bezier(0.075,0.82,0.165,1)} 53.5% {transform: translate(501.496038px,260.822409px)} 100% {transform: translate(501.496038px,260.822409px)}} #eFcD5mOZSWR4 {animation: eFcD5mOZSWR4_c_o 2000ms linear infinite normal forwards}@keyframes eFcD5mOZSWR4_c_o { 0% {opacity: 0} 30% {opacity: 0} 31% {opacity: 1} 55% {opacity: 1} 56% {opacity: 0} 100% {opacity: 0}} #eFcD5mOZSWR5_to {animation: eFcD5mOZSWR5_to__to 2000ms linear infinite normal forwards}@keyframes eFcD5mOZSWR5_to__to { 0% {transform: translate(514.612797px,541.500221px)} 30% {transform: translate(514.612797px,541.500221px)} 51% {transform: translate(702.069446px,369.232249px)} 100% {transform: translate(702.069446px,369.232249px)}} #eFcD5mOZSWR5 {animation: eFcD5mOZSWR5_c_o 2000ms linear infinite normal forwards}@keyframes eFcD5mOZSWR5_c_o { 0% {opacity: 0} 30% {opacity: 0} 31% {opacity: 1} 49% {opacity: 1} 49.5% {opacity: 0} 100% {opacity: 0}} #eFcD5mOZSWR6 {animation-name: eFcD5mOZSWR6_c_o, eFcD5mOZSWR6_s_do;animation-duration: 2000ms;animation-fill-mode: forwards;animation-timing-function: linear;animation-direction: normal;animation-iteration-count: infinite;}@keyframes eFcD5mOZSWR6_c_o { 0% {opacity: 0} 30% {opacity: 0} 31% {opacity: 1} 100% {opacity: 1}}@keyframes eFcD5mOZSWR6_s_do { 0% {stroke-dashoffset: 1282.18} 31% {stroke-dashoffset: 1282.18;animation-timing-function: cubic-bezier(0.39,0.575,0.565,1)} 46% {stroke-dashoffset: 427.393829} 100% {stroke-dashoffset: 427.393829}} #eFcD5mOZSWR7 {animation-name: eFcD5mOZSWR7_c_o, eFcD5mOZSWR7_s_do;animation-duration: 2000ms;animation-fill-mode: forwards;animation-timing-function: linear;animation-direction: normal;animation-iteration-count: infinite;}@keyframes eFcD5mOZSWR7_c_o { 0% {opacity: 0} 35% {opacity: 0} 36% {opacity: 1} 100% {opacity: 1}}@keyframes eFcD5mOZSWR7_s_do { 0% {stroke-dashoffset: 1629.93} 36% {stroke-dashoffset: 1629.93;animation-timing-function: cubic-bezier(0.39,0.575,0.565,1)} 50% {stroke-dashoffset: 543.310635} 100% {stroke-dashoffset: 543.310635}} #eFcD5mOZSWR8 {animation: eFcD5mOZSWR8_s_do 2000ms linear infinite normal forwards}@keyframes eFcD5mOZSWR8_s_do { 0% {stroke-dashoffset: 1248.28} 41% {stroke-dashoffset: 1248.28;animation-timing-function: cubic-bezier(0.39,0.575,0.565,1)} 56% {stroke-dashoffset: 416.091798} 100% {stroke-dashoffset: 416.091798}} #eFcD5mOZSWR9_to {animation: eFcD5mOZSWR9_to__to 2000ms linear infinite normal forwards}@keyframes eFcD5mOZSWR9_to__to { 0% {transform: translate(496.336313px,494.383599px)} 30% {transform: translate(496.336313px,494.383599px);animation-timing-function: cubic-bezier(0.075,0.82,0.165,1)} 46% {transform: translate(364.774528px,440.826339px)} 100% {transform: translate(364.774528px,440.826339px)}} #eFcD5mOZSWR9 {animation: eFcD5mOZSWR9_c_o 2000ms linear infinite normal forwards}@keyframes eFcD5mOZSWR9_c_o { 0% {opacity: 0} 30% {opacity: 0} 31% {opacity: 1} 47.5% {opacity: 1} 48.5% {opacity: 0} 100% {opacity: 0}} #eFcD5mOZSWR10 {animation: eFcD5mOZSWR10_s_do 2000ms linear infinite normal forwards}@keyframes eFcD5mOZSWR10_s_do { 0% {stroke-dashoffset: 416.091798} 36% {stroke-dashoffset: 416.091798;animation-timing-function: cubic-bezier(0.39,0.575,0.565,1)} 51% {stroke-dashoffset: 1248.28} 100% {stroke-dashoffset: 1248.28}} #eFcD5mOZSWR11_to {animation: eFcD5mOZSWR11_to__to 2000ms linear infinite normal forwards}@keyframes eFcD5mOZSWR11_to__to { 0% {transform: translate(487.095659px,429.067587px)} 30% {transform: translate(487.095659px,429.067587px);animation-timing-function: cubic-bezier(0.075,0.82,0.165,1)} 51% {transform: translate(428.420432px,296.38156px)} 100% {transform: translate(428.420432px,296.38156px)}} #eFcD5mOZSWR11 {animation-name: eFcD5mOZSWR11_c_o, eFcD5mOZSWR11_s_do;animation-duration: 2000ms;animation-fill-mode: forwards;animation-timing-function: linear;animation-direction: normal;animation-iteration-count: infinite;}@keyframes eFcD5mOZSWR11_c_o { 0% {opacity: 0} 29.5% {opacity: 0} 30% {opacity: 1} 51% {opacity: 1} 52% {opacity: 0} 100% {opacity: 0}}@keyframes eFcD5mOZSWR11_s_do { 0% {stroke-dashoffset: 142.43} 30% {stroke-dashoffset: 142.43;animation-timing-function: cubic-bezier(0.075,0.82,0.165,1)} 51% {stroke-dashoffset: 47.477506} 100% {stroke-dashoffset: 47.477506}} #eFcD5mOZSWR12_to {animation: eFcD5mOZSWR12_to__to 2000ms linear infinite normal forwards}@keyframes eFcD5mOZSWR12_to__to { 0% {transform: translate(648.024085px,541.533011px)} 31% {transform: translate(648.024085px,541.533011px);animation-timing-function: cubic-bezier(0.075,0.82,0.165,1)} 66% {transform: translate(661.804918px,541.533011px)} 100% {transform: translate(661.804918px,541.533011px)}} #eFcD5mOZSWR12 {animation-name: eFcD5mOZSWR12_c_o, eFcD5mOZSWR12_s_do;animation-duration: 2000ms;animation-fill-mode: forwards;animation-timing-function: linear;animation-direction: normal;animation-iteration-count: infinite;}@keyframes eFcD5mOZSWR12_c_o { 0% {opacity: 0} 30.5% {opacity: 0} 31% {opacity: 1} 100% {opacity: 1}}@keyframes eFcD5mOZSWR12_s_do { 0% {stroke-dashoffset: 152.42} 31% {stroke-dashoffset: 152.42;animation-timing-function: cubic-bezier(0.075,0.82,0.165,1)} 56% {stroke-dashoffset: 50.806423} 100% {stroke-dashoffset: 50.806423}} #eFcD5mOZSWR13_to {animation: eFcD5mOZSWR13_to__to 2000ms linear infinite normal forwards}@keyframes eFcD5mOZSWR13_to__to { 0% {transform: translate(531.081681px,448.740335px)} 31% {transform: translate(531.081681px,448.740335px);animation-timing-function: cubic-bezier(0.075,0.82,0.165,1)} 66% {transform: translate(539.591496px,321.862141px)} 100% {transform: translate(539.591496px,321.862141px)}} #eFcD5mOZSWR13 {animation-name: eFcD5mOZSWR13_c_o, eFcD5mOZSWR13_s_do;animation-duration: 2000ms;animation-fill-mode: forwards;animation-timing-function: linear;animation-direction: normal;animation-iteration-count: infinite;}@keyframes eFcD5mOZSWR13_c_o { 0% {opacity: 0} 31% {opacity: 0} 32% {opacity: 1} 100% {opacity: 1}}@keyframes eFcD5mOZSWR13_s_do { 0% {stroke-dashoffset: 152.42} 31% {stroke-dashoffset: 152.42;animation-timing-function: cubic-bezier(0.785,0.135,0.15,0.86)} 56% {stroke-dashoffset: 50.806423} 100% {stroke-dashoffset: 50.806423}} #eFcD5mOZSWR14_to {animation: eFcD5mOZSWR14_to__to 2000ms linear infinite normal forwards}@keyframes eFcD5mOZSWR14_to__to { 0% {transform: translate(840.887716px,701.703647px);animation-timing-function: cubic-bezier(0.175,0.885,0.32,1.275)} 15% {transform: translate(850.528332px,724.213722px);animation-timing-function: cubic-bezier(0.47,0,0.745,0.715)} 30% {transform: translate(741.435334px,697.262286px);animation-timing-function: cubic-bezier(0.39,0.575,0.565,1)} 45% {transform: translate(840.887716px,701.703647px)} 100% {transform: translate(840.887716px,701.703647px)}} #eFcD5mOZSWR16_tr {animation: eFcD5mOZSWR16_tr__tr 2000ms linear infinite normal forwards}@keyframes eFcD5mOZSWR16_tr__tr { 0% {transform: translate(659.230552px,554.207517px) rotate(0.624116deg);animation-timing-function: cubic-bezier(0.175,0.885,0.32,1.275)} 15% {transform: translate(659.230552px,554.207517px) rotate(14.700811deg);animation-timing-function: cubic-bezier(0.47,0,0.745,0.715)} 30% {transform: translate(659.230552px,554.207517px) rotate(-11.186669deg);animation-timing-function: cubic-bezier(0.39,0.575,0.565,1)} 45% {transform: translate(659.230552px,554.207517px) rotate(0.624116deg)} 100% {transform: translate(659.230552px,554.207517px) rotate(0.624116deg)}} #eFcD5mOZSWR18_tr {animation: eFcD5mOZSWR18_tr__tr 2000ms linear infinite normal forwards}@keyframes eFcD5mOZSWR18_tr__tr { 0% {transform: translate(659.96171px,552.547634px) rotate(0deg);animation-timing-function: cubic-bezier(0.175,0.885,0.32,1.275)} 15% {transform: translate(659.96171px,552.547634px) rotate(8.421008deg)} 30% {transform: translate(659.96171px,552.547634px) rotate(0deg)} 100% {transform: translate(659.96171px,552.547634px) rotate(0deg)}} #eFcD5mOZSWR21_tr {animation: eFcD5mOZSWR21_tr__tr 2000ms linear infinite normal forwards}@keyframes eFcD5mOZSWR21_tr__tr { 0% {transform: translate(650.090801px,532.56061px) rotate(0deg);animation-timing-function: cubic-bezier(0.175,0.885,0.32,1.275)} 15% {transform: translate(650.090801px,532.56061px) rotate(5.247197deg)} 30% {transform: translate(650.090801px,532.56061px) rotate(0deg)} 100% {transform: translate(650.090801px,532.56061px) rotate(0deg)}} #eFcD5mOZSWR31_tr {animation: eFcD5mOZSWR31_tr__tr 2000ms linear infinite normal forwards}@keyframes eFcD5mOZSWR31_tr__tr { 0% {transform: translate(709.020363px,564.779175px) rotate(0deg);animation-timing-function: cubic-bezier(0.175,0.885,0.32,1.275)} 15% {transform: translate(709.020363px,564.779175px) rotate(10.508351deg)} 30% {transform: translate(709.020363px,564.779175px) rotate(0deg)} 100% {transform: translate(709.020363px,564.779175px) rotate(0deg)}} #eFcD5mOZSWR39_to {animation: eFcD5mOZSWR39_to__to 2000ms linear infinite normal forwards}@keyframes eFcD5mOZSWR39_to__to { 0% {transform: translate(240.032817px,724.650034px);animation-timing-function: cubic-bezier(0.175,0.885,0.32,1.275)} 15% {transform: translate(231.482348px,752.594931px);animation-timing-function: cubic-bezier(0.47,0,0.745,0.715)} 30% {transform: translate(295.616913px,730.177473px);animation-timing-function: cubic-bezier(0.39,0.575,0.565,1)} 45% {transform: translate(240.032817px,724.650034px)} 100% {transform: translate(240.032817px,724.650034px)}} #eFcD5mOZSWR41_tr {animation: eFcD5mOZSWR41_tr__tr 2000ms linear infinite normal forwards}@keyframes eFcD5mOZSWR41_tr__tr { 0% {transform: translate(451.500001px,572.625901px) rotate(-2.361965deg);animation-timing-function: cubic-bezier(0.175,0.885,0.32,1.275)} 15% {transform: translate(451.500001px,572.625901px) rotate(-17.199141deg);animation-timing-function: cubic-bezier(0.47,0,0.745,0.715)} 30% {transform: translate(451.500001px,572.625901px) rotate(10.601783deg);animation-timing-function: cubic-bezier(0.39,0.575,0.565,1)} 45% {transform: translate(451.500001px,572.625901px) rotate(-2.361965deg)} 100% {transform: translate(451.500001px,572.625901px) rotate(-2.361965deg)}} #eFcD5mOZSWR50_tr {animation: eFcD5mOZSWR50_tr__tr 2000ms linear infinite normal forwards}@keyframes eFcD5mOZSWR50_tr__tr { 0% {transform: translate(454.169872px,554.867299px) rotate(0deg);animation-timing-function: cubic-bezier(0.175,0.885,0.32,1.275)} 15% {transform: translate(454.169872px,554.867299px) rotate(-4.905552deg);animation-timing-function: cubic-bezier(0.39,0.575,0.565,1)} 30% {transform: translate(454.169872px,554.867299px) rotate(0deg)} 100% {transform: translate(454.169872px,554.867299px) rotate(0deg)}} #eFcD5mOZSWR54_tr {animation: eFcD5mOZSWR54_tr__tr 2000ms linear infinite normal forwards}@keyframes eFcD5mOZSWR54_tr__tr { 0% {transform: translate(476.528455px,556.085755px) rotate(0deg);animation-timing-function: cubic-bezier(0.175,0.885,0.32,1.275)} 15% {transform: translate(476.528455px,556.085755px) rotate(-2.660946deg);animation-timing-function: cubic-bezier(0.39,0.575,0.565,1)} 30% {transform: translate(476.528455px,556.085755px) rotate(0deg)} 100% {transform: translate(476.528455px,556.085755px) rotate(0deg)}} #eFcD5mOZSWR58_tr {animation: eFcD5mOZSWR58_tr__tr 2000ms linear infinite normal forwards}@keyframes eFcD5mOZSWR58_tr__tr { 0% {transform: translate(463.269744px,583.69798px) rotate(0deg);animation-timing-function: cubic-bezier(0.175,0.885,0.32,1.275)} 15% {transform: translate(463.269744px,583.69798px) rotate(-7.477848deg)} 30% {transform: translate(463.269744px,583.69798px) rotate(0deg)} 100% {transform: translate(463.269744px,583.69798px) rotate(0deg)}}
]]></style>
<g transform="translate(34.000001 0)"><g id="eFcD5mOZSWR3_ts" transform="translate(486.089593,525.555688) scale(0.943895,0.943895)"><ellipse rx="153.67122" ry="153.67122" transform="translate(0,0)" fill="#bfdaff" stroke-width="0"/></g><g id="eFcD5mOZSWR4_to" transform="translate(504.948242,607.688696)"><ellipse id="eFcD5mOZSWR4" rx="12.240524" ry="12.240524" transform="scale(0.73591,0.73591) translate(0,0)" opacity="0" fill="#fbd743" stroke-width="0"/></g><g id="eFcD5mOZSWR5_to" transform="translate(514.612797,541.500221)"><ellipse id="eFcD5mOZSWR5" rx="12.240524" ry="12.240524" transform="scale(0.73591,0.73591) translate(0,0)" opacity="0" fill="#fbd743" stroke-width="0"/></g><path id="eFcD5mOZSWR6" d="M632.816049,469.327703q3.345372-50.898879,46.917295-31.59982c30.299431,19.474276,40.124246,12.495962,45.517505-19.29906s61.312802-33.528502,51.661713-17.841065-116.919626,19.952039-8.515667-31.014372q54.137667-25.452969,26.585246-75.389908" transform="matrix(.743009 0.669281-.669281 0.743009 377.63829-312.650319)" opacity="0" fill="none" stroke="#e95293" stroke-width="4" stroke-linecap="round" stroke-dashoffset="1282.18" stroke-dasharray="427.393829"/><path id="eFcD5mOZSWR7" d="M373.001672,394.781561q-28.120359-49.966481-92.748357-35.496895c-64.627998,14.469586-44.864234,57.273394-117.807032,36.041639-63.983639-18.623976,19.711449-68.706323,53.179033,7.322167s-131.045022-24.731777-116.982406,58.024446" transform="matrix(.531069 0.847328-.847328 0.531069 576.037262-43.829311)" opacity="0" fill="none" stroke="#e95293" stroke-width="4" stroke-linecap="round" stroke-dashoffset="1629.93" stroke-dasharray="543.310635"/><path id="eFcD5mOZSWR8" d="M567.1353,338.196388c-32.672196-74.7604,8.612301-129.901823,34.072518-116.212999s-34.97428,76.805924-60.650923,29.615947s50.409871-98.741029,104.534605-96.264109" transform="matrix(.988808 0.149193-.149193 0.988808 63.137252 5.973324)" fill="none" stroke="#fbd743" stroke-width="4" stroke-linecap="round" stroke-dashoffset="1248.28" stroke-dasharray="416.091798"/><g id="eFcD5mOZSWR9_to" transform="translate(496.336313,494.383599)"><ellipse id="eFcD5mOZSWR9" rx="12.240524" ry="12.240524" transform="scale(0.73591,0.73591) translate(0,0)" opacity="0" fill="#e95293" stroke-width="0"/></g><path id="eFcD5mOZSWR10" d="M567.1353,338.196388c-32.672196-74.7604,8.612301-129.901823,34.072518-116.212999s-34.97428,76.805924-60.650923,29.615947s50.409871-98.741029,104.534605-96.264109" transform="matrix(.702123 0.712056-.712056 0.702123 94.443056-47.359289)" fill="none" stroke="#3d83c3" stroke-width="4" stroke-linecap="round" stroke-dashoffset="416.091798" stroke-dasharray="416.091798"/><g id="eFcD5mOZSWR11_to" transform="translate(487.095659,429.067587)"><path id="eFcD5mOZSWR11" d="M660.096633,554.997532h47.477506" transform="rotate(-113.973351) translate(-660.1393,-554.926206)" opacity="0" fill="none" stroke="#3d83c3" stroke-width="3" stroke-linecap="round" stroke-dashoffset="142.43" stroke-dasharray="47.477506"/></g><g id="eFcD5mOZSWR12_to" transform="translate(648.024085,541.533011)"><path id="eFcD5mOZSWR12" d="M647.909464,541.737186h50.806423" transform="translate(-648.024084,-541.533011)" opacity="0" fill="none" stroke="#3d83c3" stroke-width="3" stroke-linecap="round" stroke-dashoffset="152.42" stroke-dasharray="50.806423"/></g><g id="eFcD5mOZSWR13_to" transform="translate(531.081681,448.740335)"><path id="eFcD5mOZSWR13" d="M647.909464,541.737186h50.806423" transform="rotate(-86.682541) translate(-648.024084,-541.533011)" opacity="0" fill="none" stroke="#3d83c3" stroke-width="3" stroke-linecap="round" stroke-dashoffset="152.42" stroke-dasharray="50.806423"/></g></g><g id="eFcD5mOZSWR14_to" transform="translate(840.887716,701.703647)"><g transform="rotate(2.516959) translate(-863.887715,-701.703645)"><path d="M848.429589,694.724143l-.244132.266578c24.717448-36.162602,20.071694-71.385526,6.918392-79.778456L674,521.51c-26.168607-13.214738-58.101492-3.857965-73,21.39v0c-14.85987,25.205796-7.662438,57.613904,16.47,74.16L798.623131,737.83733c7.341972,1.746633,22.423034-3.62272,49.806458-43.113187Z" fill="#f5b69a"/><g id="eFcD5mOZSWR16_tr" transform="translate(659.230552,554.207517) rotate(0.624116)"><g transform="translate(-659.230552,-554.207505)"><path d="M647.76,537.12h21.76c15.440904,0,30.249389,6.133875,41.167757,17.052243s17.052243,25.726853,17.052243,41.167757v26.74h-138.2v-26.75c.005522-32.150113,26.069887-58.21,58.22-58.21Z" transform="matrix(-.999919 0.012741-.01274-.999919 1324.66 1150.69)" fill="#f5b69a"/><g id="eFcD5mOZSWR18_tr" transform="translate(659.96171,552.547634) rotate(0)"><g transform="translate(-659.96171,-552.547634)"><rect width="33.12" height="163.72" rx="16.56" ry="16.56" transform="matrix(1 0 0 0.935579 588.83148 403.505077)" fill="#f5b69a"/><path d="M692.261456,625.862546c-20.725648,4.927025-43.490858,8.687088-68.894753-6.233951C599.547849,605.638534,588.285494,583.021287,589.29,560.16l.194374-138.740349c.055344-4.392098.549815-8.939978,3.052569-12.198561s6.121413-5.186609,10.513502-5.130559q7.067345-.090594,10.133641,3.054469c3.066295,3.145063,5.161066,7.198977,5.105016,11.591066L620.44,538.17" fill="none" stroke="#e09679" stroke-width="3" stroke-linecap="round" stroke-miterlimit="10"/></g></g><g id="eFcD5mOZSWR21_tr" transform="translate(650.090801,532.56061) rotate(0)"><g transform="translate(-650.090801,-532.56061)"><g><rect width="33.12" height="178.22" rx="16.56" ry="16.56" transform="matrix(.999919 0.012741-.012741 0.999919 613.074367 376.165661)" fill="#f5b69a"/><path d="M612.39,502.23l.44-109.45c.055331-4.393853,1.854721-8.585567,5.001954-11.65215s7.384237-4.756575,11.778046-4.69785v0c4.39907.044805,8.599518,1.838186,11.674441,4.984401s4.771575,7.386658,4.715559,11.785599l-1.86,145.09" fill="none" stroke="#e09679" stroke-width="3" stroke-linecap="round" stroke-miterlimit="10"/></g><g><rect width="33.12" height="186.7" rx="16.56" ry="16.56" transform="matrix(.999919 0.012741-.012741 0.999919 639.315698 368.050007)" fill="#f5b69a"/><path d="M637.59,500.34l1.49-115.69c.055344-4.392098,1.853356-8.58228,4.998419-11.648576s7.379492-4.757474,11.771581-4.701424v0c4.392109.057962,8.581258,1.858507,11.645686,5.005453s4.753051,7.382448,4.694314,11.774547l-2,153.56" fill="none" stroke="#e09679" stroke-width="3" stroke-linecap="round" stroke-miterlimit="10"/></g><g><rect width="33.12" height="179.8" rx="16.25" ry="16.25" transform="matrix(.999919 0.012741-.012741 0.999919 670.442325 375.176565)" fill="#f5b69a"/><path d="M701.74,515.51l1.58-123.61c.116843-8.959529-7.040758-16.322911-16-16.46h-.62c-8.957852-.116811-16.318368,7.042354-16.45,16l-.13,108.86" fill="none" stroke="#e09679" stroke-width="3" stroke-linecap="round" stroke-miterlimit="10"/></g></g></g><g id="eFcD5mOZSWR31_tr" transform="translate(709.020363,564.779175) rotate(0)"><g transform="translate(-709.020363,-564.779175)"><rect width="35.2" height="127.4" rx="17.6" ry="17.6" transform="matrix(.999919 0.012741-.012741 0.999919 692.260035 456.032213)" fill="#f5b69a"/><path d="M690.82,532.26L692,473.59c.060603-4.667938,1.97326-9.120568,5.317121-12.37816s7.844952-5.05324,12.512879-4.99184v0c9.700815.126267,17.470043,8.078879,17.37,17.78L726,566.24" fill="none" stroke="#e09679" stroke-width="3" stroke-linecap="round" stroke-miterlimit="10"/></g></g></g></g><g transform="matrix(1.887457-.67073 0.67073 1.887457-1258.183135-199.814711)"><path d="M792.564498,766.464462q8.55977,10.382111,10.126036,12.338665c7.2393,7.574203,7.054888,8.259474,12.057777,9.443482c11.956251,1.332946,49.114178-30.411132,47.348369-44.087667-.814095-2.11338-1.636856-3.58961-5.507881-8.453596q0,0-10.66447-13.688247-21.725878,32.668765-53.359831,44.447363Z" transform="translate(.914421-.226588)" fill="#1f7dff" stroke-width="2.16"/><path d="M790.767151,765.648288c2.239881,2.229804,3.887392,3.791755,5.203217,4.986865c3.029098,1.767744,12.95815-2.693071,16.162599-4.470997c20.272798-11.247969,30.921891-27.988631,34.693202-36.643194c3.031291-6.646067-2.107206-12.208606-7.491709-17.593108.019146-.304688-50.80719,51.49063-48.567309,53.720434Z" transform="translate(1.195175 0.245262)" stroke-width="2.16"/><path d="M771.37605,733.975483c-.529958.00894-7.929867,2.530336,8.902953,23.910932c5.384503,6.730628,9.936908,12.397402,15.76429,12.241479s35.632685-10.768153,52.558855-44.13488c1.006051-3.020004-1.594455-7.216657-10.274099-16.065219s-17.564847-15.089935-17.908519-10.336319c-.102072.049094-.175293,5.211227-17.434226,18.655407-6.394097,5.384502-27.29806,19.89672-31.609254,15.7286Z" transform="translate(.336533-1.346124)" fill="#589eff" stroke-width="2.16"/><ellipse rx="10.697374" ry="10.697374" transform="matrix(.522626 0 0 0.522626 795.545372 748.993451)" fill="#3ff9f7" stroke="#000" stroke-width="1.5" stroke-linecap="round" stroke-dasharray="40,30"/></g></g></g><g id="eFcD5mOZSWR39_to" transform="translate(240.032817,724.650034)"><g transform="rotate(-4.486887) translate(-240.032816,-724.650033)"><path d="M248.640999,719.231361c-14.300395-23.385788-.686961-.122598-.686961-.122598-11.733648-18.297928-32.426323-67.419667-12.374341-81.598332L439.74,538.14c27.172971-13.754164,60.356688-4.038013,75.82,22.2v0c15.45056,26.167479,7.974366,59.832212-17.1,77L318.225362,774.179399c-22.166025,11.60817-55.283968-31.56225-69.584363-54.948038Z" transform="matrix(.995174-.098126 0.098126 0.995174-54.132221 47.068754)" fill="#f5b69a"/><g id="eFcD5mOZSWR41_tr" transform="translate(451.500001,572.625901) rotate(-2.361965)"><g transform="translate(-451.499997,-572.625898)"><rect width="34.38" height="169.94" rx="17.19" ry="17.19" transform="matrix(.999919 0.012741-.012741 0.999919 386.543778 401.997985)" fill="#f5b69a"/><path d="M467.29,642.66l-23.2-.29c-33.49882-.428048-60.307993-27.931179-59.88-61.43l1.18-27.51l143.68,1.84-.35,27.52c-.205544,16.085805-6.793415,31.43097-18.314067,42.659058s-27.030162,17.419146-43.115933,17.210942Z" fill="#f5b69a"/><path d="M398,411.15h1.16c3.865993,0,7,3.134007,7,7v2.85c0,.843388-.335035,1.652234-.9314,2.2486s-1.405212.9314-2.2486.9314h-8.88c-.843388,0-1.652234-.335035-2.2486-.9314s-.9314-1.405212-.9314-2.2486v-2.79c-.016246-1.880839.725114-3.689082,2.056997-5.017204s3.142217-2.064362,5.023003-2.042796Z" fill="#ffc7af" stroke="#e09679" stroke-width="2.5" stroke-linecap="round" stroke-miterlimit="10"/><path d="M384.485576,584.731386L386.4,419.35c.052724-4.563575,1.917013-8.919102,5.182383-12.107574s7.664081-4.948452,12.227617-4.892426v0c4.563575.052724,8.919102,1.917013,12.107574,5.182383s4.948452,7.664081,4.892426,12.227617L419,555.34" fill="none" stroke="#e09679" stroke-width="3.114" stroke-linecap="round" stroke-miterlimit="10"/><rect width="34.38" height="184.99" rx="17.19" ry="17.19" transform="matrix(.999919 0.012741-.012741 0.999919 411.399188 387.284646)" fill="#f5b69a"/><path d="M410.67,523.13l.48-118.62c.052724-4.563575,1.917013-8.919102,5.182383-12.107574s7.664081-4.948452,12.227617-4.892426v0c4.563575.052724,8.919102,1.917013,12.107574,5.182383s4.948452,7.664081,4.892426,12.227617l-1.93,150.6" fill="none" stroke="#e09679" stroke-width="3.114" stroke-linecap="round" stroke-miterlimit="10"/><path d="M425.21,394.3v0c2.299427,0,4.504675.913444,6.130616,2.539384s2.539384,3.831189,2.539384,6.130616v4.75c0,1.039649-.412999,2.036716-1.148141,2.771859s-1.73221,1.148141-2.771859,1.148141h-9.5c-1.039649,0-2.036716-.412999-2.771859-1.148141s-1.148141-1.73221-1.148141-2.771859v-4.72c-.007975-2.30462.901948-4.517584,2.528753-6.150018s3.836613-2.549996,6.141247-2.549982Z" fill="#ffc7af" stroke="#e09679" stroke-width="2.5" stroke-linecap="round" stroke-miterlimit="10"/><g id="eFcD5mOZSWR50_tr" transform="translate(454.169872,554.867299) rotate(0)"><g transform="translate(-454.169872,-554.867299)"><rect width="34.38" height="193.79" rx="17.19" ry="17.19" transform="matrix(.999919 0.012741-.012741 0.999919 438.634388 378.85163)" fill="#f5b69a"/><path d="M436.81,519.44l1.58-123.37c.047422-4.565267,1.910038-8.923907,5.176577-12.11352s7.668322-4.947848,12.233423-4.88648v0c4.564357.044781,8.923023,1.905183,12.11292,5.170136s4.948444,7.6657,4.88708,12.229864l-2,159.4" fill="none" stroke="#e09679" stroke-width="3.114" stroke-linecap="round" stroke-miterlimit="10"/><path d="M451.5,386.51v0c2.299427,0,4.504675.913444,6.130616,2.539384s2.539384,3.831189,2.539384,6.130616v4.75c0,1.039649-.412999,2.036716-1.148141,2.771859s-1.73221,1.148141-2.771859,1.148141h-9.5c-1.039649,0-2.036716-.412999-2.771859-1.148141s-1.148141-1.73221-1.148141-2.771859v-4.75c0-2.299427.913444-4.504675,2.539384-6.130616s3.831189-2.539384,6.130616-2.539384Z" fill="#ffc7af" stroke="#e09679" stroke-width="2.5" stroke-linecap="round" stroke-miterlimit="10"/></g></g><g id="eFcD5mOZSWR54_tr" transform="translate(476.528455,556.085755) rotate(0)"><g transform="translate(-476.528455,-556.085755)"><rect width="34.38" height="186.63" rx="16.87" ry="16.87" transform="matrix(.999919 0.012741-.012741 0.999919 461.438123 386.26216)" fill="#f5b69a"/><path d="M459.63,525.38l1.56-122.22c.057969-4.474324,1.891177-8.742318,5.096257-11.864881s7.519429-4.843849,11.993743-4.785119h.64c9.313427.120734,16.766727,7.766522,16.65,17.08l-2,152.88" fill="none" stroke="#e09679" stroke-width="3.114" stroke-linecap="round" stroke-miterlimit="10"/><path d="M474.88,393.64v0c2.299427,0,4.504675.913444,6.130616,2.539384s2.539384,3.831189,2.539384,6.130616v4.75c0,1.039649-.412999,2.036716-1.148141,2.771859s-1.73221,1.148141-2.771859,1.148141h-9.5c-1.039649,0-2.036716-.412999-2.771859-1.148141s-1.148141-1.73221-1.148141-2.771859v-4.75c0-2.299427.913444-4.504675,2.539384-6.130616s3.831189-2.539384,6.130616-2.539384Z" fill="#ffc7af" stroke="#e09679" stroke-width="2.076" stroke-linecap="round" stroke-miterlimit="10"/></g></g><g id="eFcD5mOZSWR58_tr" transform="translate(463.269744,583.69798) rotate(0)"><g transform="translate(-463.269744,-583.69798)"><rect width="36.53" height="132.24" rx="18.27" ry="18.27" transform="matrix(.999919 0.012741-.012741 0.999919 493.59728 470.079438)" fill="#f5b69a"/><path d="M492.1,549.29l1.23-60.9c.142618-10.077239,8.422635-18.133472,18.5-18v0c10.07488.148094,18.127934,8.424843,18,18.5l-.7,81.3c-.09,44.67-22.49,62.72-43.61,74.15" fill="none" stroke="#e09679" stroke-width="3.114" stroke-linecap="round" stroke-miterlimit="10"/><path d="M515.92,478.54h1.24c4.445892,0,8.05,3.604108,8.05,8.05v3.26c0,2.010316-1.629684,3.64-3.64,3.64h-10.07c-2.010316,0-3.64-1.629684-3.64-3.64v-3.26c0-4.445892,3.604108-8.05,8.05-8.05Z" fill="#ffc7af" stroke="#e09679" stroke-width="2.5" stroke-linecap="round" stroke-miterlimit="10"/></g></g></g></g><g transform="matrix(-.19928 2.087332-2.087332-.19928 2053.857025-882.90668)"><path d="M793.777616,766.660569q6.702535,12.458419,7.763939,15.290363c4.173328,9.052936,10.013042,17.251251,23.53348,14.3244s42.066424-29.951294,47.114395-43.41255c3.701846-9.086348,2.213167-13.04501-1.094962-16.446327q-4.71144-4.71144-22.125704-16.870282-23.557195,35.335798-55.191148,47.114396Z" transform="translate(.000002 0.000002)" fill="#e95293" stroke-width="2.16"/><path d="M780.919945,759.412713c2.683437,3.389516,10.534976,10.167282,15.887145,8.730102s30.802015-6.387725,52.432268-43.112326c2.019189-3.365314.978867-3.840437-1.82086-5.912868.019146-.304688-69.18199,36.905576-66.498553,40.295092Z" transform="translate(1.269379 0.003251)" stroke-width="2.16"/><path d="M774.223054,739.284036c-.529958.00894-8.386299,4.076754,4.065363,19.89373c5.384503,6.730628,11.619509,12.094552,17.004011,10.075363s32.383758-10.495576,54.014011-47.220177c2.889674-4.945146-1.716978-12.255347-7.101481-17.639849s-16.150867-12.97419-20.988678-7.970318c-.102072.049094,6.887539,6.633349-12.967814,25.142575-6.394097,5.384502-29.714218,21.886796-34.025412,17.718676Z" transform="translate(.336533-1.346124)" fill="#e95293" stroke-width="2.16"/><path d="M231.114523,657.384156c10.572952-21.708769,38.575183-26.855643,46.472584-11.316285c15.406868,30.315395-34.856446,54.234026-37.152456,38.66604-.146927-26.76505,56.933795-23.740278,72.385955,5.976506c15.845396,33.954421-25.031471,63.545601-36.754295,47.04657s33.843055-33.616877,61.698474-20.241704c28.351146,14.251798,13.839893,68.399807-13.995743,60.184098-31.632342-13.789257,60.214331-73.366456,40.91958-12.577615" transform="matrix(.024338-.408598 0.408598 0.024338 516.264085 840.996915)" fill="none" stroke="#fff" stroke-width="2" stroke-linecap="round"/></g></g></g></svg>
